# xmcd
#
# Track frame offsets:
# 150
# 19397
# 32077
# 54760
# 65995
#
# Disc length: 1155 seconds
#
# Revision: 0
# Processed by: cddbd v1.4PL0 Copyright (c) Steve Scherf et al.
# Submitted via: Audion 3.0.2 (http://www.panic.com/audion/)
#
DISCID=40048105
DTITLE=SAU - Et donem la nota
DYEAR=1900
DGENRE=
TTITLE0=Boig per tu
TTITLE1=No he nascut per militar
TTITLE2=Màgic whisky
TTITLE3=Al teu costat
TTITLE4=Records d'Irlanda
EXTD=
EXTT0=
EXTT1=
EXTT2=
EXTT3=
EXTT4=
PLAYORDER=
